<svg id="Grupo_1104143" data-name="Grupo 1104143" xmlns="http://www.w3.org/2000/svg" xmlns:xlink="http://www.w3.org/1999/xlink" width="53.146" height="113.1" viewBox="0 0 53.146 113.1">
  <defs>
    <clipPath id="clip-path">
      <rect id="Rectángulo_401878" data-name="Rectángulo 401878" width="53.146" height="113.1" fill="none"/>
    </clipPath>
    <clipPath id="clip-path-2">
      <rect id="Rectángulo_401877" data-name="Rectángulo 401877" width="53.145" height="113.1" fill="none"/>
    </clipPath>
    <clipPath id="clip-path-3">
      <rect id="Rectángulo_401876" data-name="Rectángulo 401876" width="46.231" height="110.487" fill="none"/>
    </clipPath>
    <clipPath id="clip-path-4">
      <path id="Trazado_878170" data-name="Trazado 878170" d="M48.774,109.648c0,2.6-1.582,3.8-3.535,2.672L6.074,89.706C4.122,88.58,2.54,85.555,2.542,82.957V5.353c0-2.6,1.582-3.8,3.535-2.672Z" transform="translate(-2.542 -2.257)" fill="none"/>
    </clipPath>
    <linearGradient id="linear-gradient" x1="0.341" y1="0.921" x2="0.348" y2="0.921" gradientUnits="objectBoundingBox">
      <stop offset="0" stop-color="#afbec9"/>
      <stop offset="0.155" stop-color="#abbac5"/>
      <stop offset="0.297" stop-color="#a2b0ba"/>
      <stop offset="0.433" stop-color="#929ea7"/>
      <stop offset="0.566" stop-color="#7b858d"/>
      <stop offset="0.696" stop-color="#5e666c"/>
      <stop offset="0.825" stop-color="#3a3f42"/>
      <stop offset="0.95" stop-color="#101112"/>
      <stop offset="0.995"/>
      <stop offset="1"/>
    </linearGradient>
  </defs>
  <g id="Grupo_1100444" data-name="Grupo 1100444" clip-path="url(#clip-path)">
    <g id="Grupo_1100443" data-name="Grupo 1100443" transform="translate(0 0)">
      <g id="Grupo_1100442" data-name="Grupo 1100442" clip-path="url(#clip-path-2)">
        <path id="Trazado_878165" data-name="Trazado 878165" d="M52.915,29.786v77.6c0,2.6-4.173,6.641-6.126,5.515L10.216,87.448C8.263,86.322,6.682,83.3,6.684,80.7L3.207,3.1c0-2.6,5.06-3.8,7.011-2.672L49.38,23.031c1.951,1.129,3.535,4.151,3.536,6.755" transform="translate(0.23 0)" fill="#324255"/>
        <path id="Trazado_878166" data-name="Trazado 878166" d="M48.774,32.043v77.6c0,2.6-1.582,3.8-3.535,2.672L6.074,89.705c-1.953-1.126-3.535-4.15-3.531-6.749V5.352c0-2.6,1.582-3.8,3.533-2.672L45.239,25.289c1.949,1.127,3.533,4.15,3.535,6.754" transform="translate(0.182 0.162)" fill="#475f73"/>
        <path id="Trazado_878167" data-name="Trazado 878167" d="M3.486,73.571V9.734c0-1.911,1.162-2.789,2.595-1.961L45.1,30.3a6.211,6.211,0,0,1,2.594,4.957V99.093c0,1.911-1.161,2.789-2.594,1.961L6.081,78.528a6.212,6.212,0,0,1-2.595-4.957" transform="translate(0.25 0.535)" fill="#3d4d63"/>
        <path id="Trazado_878168" data-name="Trazado 878168" d="M45.935,99.715a1.326,1.326,0,0,1-1.36-.085L5.558,77.1a2.153,2.153,0,0,1-.776-.76,3.848,3.848,0,0,1-.436-1.8V10.7a1.961,1.961,0,0,1,.773-1.779,1.328,1.328,0,0,1,1.361.085L45.5,31.535a2.157,2.157,0,0,1,.776.759,3.844,3.844,0,0,1,.435,1.8V97.935a1.96,1.96,0,0,1-.773,1.78" transform="translate(0.312 0.629)" fill="#fff"/>
        <g id="Grupo_1100441" data-name="Grupo 1100441" transform="translate(2.725 2.419)" opacity="0.2" style="mix-blend-mode: lighten;isolation: isolate">
          <g id="Grupo_1100440" data-name="Grupo 1100440">
            <g id="Grupo_1100439" data-name="Grupo 1100439" clip-path="url(#clip-path-3)">
              <g id="Grupo_1100438" data-name="Grupo 1100438" transform="translate(0 0)">
                <g id="Grupo_1100437" data-name="Grupo 1100437" clip-path="url(#clip-path-4)">
                  <path id="Trazado_878169" data-name="Trazado 878169" d="M52.664,2.286,110.784,124.4,6.429,114.177-51.69-7.94Z" transform="translate(-6.431 -2.989)" fill="url(#linear-gradient)"/>
                </g>
              </g>
            </g>
          </g>
        </g>
        <path id="Trazado_878171" data-name="Trazado 878171" d="M24.369,16.957l-6.481-3.741a1.8,1.8,0,0,1-.75-1.434c0-.553.335-.807.75-.568l6.481,3.741a1.8,1.8,0,0,1,.75,1.435c0,.552-.335.806-.75.567" transform="translate(1.229 0.798)" fill="#26364d"/>
        <path id="Trazado_878172" data-name="Trazado 878172" d="M37.092,23.02c0,.765-.542,1.074-1.209.689a2.665,2.665,0,0,1-1.208-2.084c0-.765.541-1.074,1.208-.688a2.664,2.664,0,0,1,1.209,2.083" transform="translate(2.487 1.49)" fill="#617b91"/>
        <path id="Trazado_878173" data-name="Trazado 878173" d="M36.479,24.7a1.868,1.868,0,0,1-.929-.269,3.417,3.417,0,0,1-1.594-2.75A1.493,1.493,0,0,1,36.32,20.32a3.419,3.419,0,0,1,1.594,2.75,1.588,1.588,0,0,1-.737,1.441,1.375,1.375,0,0,1-.7.184M35.5,21.626a1.9,1.9,0,0,0,.822,1.466,1.71,1.71,0,0,0-.771-1.438l-.051-.028" transform="translate(2.435 1.438)" fill="#26364d"/>
        <path id="Trazado_878174" data-name="Trazado 878174" d="M2.761,26.833,2.707,26.8a5.965,5.965,0,0,1-2.7-4.675V17.909l5.381,3.11v4.256c0,1.721-1.137,2.419-2.628,1.558" transform="translate(0.001 1.284)" fill="#fe8938"/>
        <path id="Trazado_878175" data-name="Trazado 878175" d="M7.7,29.684l-.055-.031A5.88,5.88,0,0,1,5.03,24.978V20.81l5.305,3.133v4.183c0,1.721-1.144,2.419-2.634,1.558" transform="translate(0.361 1.492)" fill="#fdc7a1"/>
        <path id="Trazado_878176" data-name="Trazado 878176" d="M12.644,32.539l-.055-.031a5.874,5.874,0,0,1-2.61-4.675V23.65l5.3,3.088v4.243c0,1.721-1.148,2.419-2.639,1.558" transform="translate(0.716 1.696)" fill="#fe8938"/>
        <path id="Trazado_878177" data-name="Trazado 878177" d="M17.588,35.392l-.055-.031a5.87,5.87,0,0,1-2.605-4.675V26.532l5.328,3.119-.045,4.183c0,1.721-1.132,2.419-2.622,1.558" transform="translate(1.071 1.903)" fill="#fdc7a1"/>
        <path id="Trazado_878178" data-name="Trazado 878178" d="M22.533,38.248l-.055-.031a5.886,5.886,0,0,1-2.621-4.675l.045-4.183,5.32,3.09V36.69c0,1.721-1.2,2.419-2.689,1.558" transform="translate(1.424 2.106)" fill="#fe8938"/>
        <path id="Trazado_878179" data-name="Trazado 878179" d="M27.473,41.1l-.055-.031a5.821,5.821,0,0,1-2.556-4.675V32.243l5.3,3.117L30.1,39.542c0,1.721-1.132,2.419-2.622,1.558" transform="translate(1.783 2.312)" fill="#fdc7a1"/>
        <path id="Trazado_878180" data-name="Trazado 878180" d="M32.421,43.957l-.055-.031a5.886,5.886,0,0,1-2.621-4.675l.065-4.183,5.336,3.15V42.4c0,1.721-1.235,2.419-2.725,1.558" transform="translate(2.133 2.515)" fill="#fe8938"/>
        <path id="Trazado_878181" data-name="Trazado 878181" d="M0,18.42l5.391,3.1L12.8,13.991,7.458,10.912Z" transform="translate(0 0.783)" fill="#fe8938"/>
        <path id="Trazado_878182" data-name="Trazado 878182" d="M5.03,21.314l5.326,3.034,7.386-7.484-5.3-3.079Z" transform="translate(0.361 0.989)" fill="#fdc7a1"/>
        <path id="Trazado_878183" data-name="Trazado 878183" d="M10,24.142l5.283,3.1,7.427-7.5-5.322-3.079Z" transform="translate(0.717 1.195)" fill="#fe8938"/>
        <path id="Trazado_878184" data-name="Trazado 878184" d="M14.928,27.034l5.338,3.036,7.387-7.484-5.275-3.055c-.024,0-7.451,7.5-7.451,7.5" transform="translate(1.071 1.401)" fill="#fdc7a1"/>
        <path id="Trazado_878185" data-name="Trazado 878185" d="M19.909,29.866l5.308,3.084,7.4-7.49-5.3-3.078c-.024,0-7.411,7.484-7.411,7.484" transform="translate(1.428 1.605)" fill="#fe8938"/>
        <path id="Trazado_878186" data-name="Trazado 878186" d="M24.862,32.743l5.289,3.074,7.435-7.508-5.322-3.054Z" transform="translate(1.783 1.811)" fill="#fdc7a1"/>
        <path id="Trazado_878187" data-name="Trazado 878187" d="M29.8,35.613l5.346,3.1,7.436-7.51-5.347-3.1Z" transform="translate(2.137 2.016)" fill="#fe8938"/>
        <path id="Trazado_878188" data-name="Trazado 878188" d="M34.785,38.5v4.868l7.2-3.451V31.2Z" transform="translate(2.495 2.238)" fill="#985221"/>
        <path id="Trazado_878189" data-name="Trazado 878189" d="M23.386,74.341,7.134,64.957V43.234l16.253,9.383Z" transform="translate(0.512 3.101)" fill="#f75c5a"/>
        <path id="Trazado_878190" data-name="Trazado 878190" d="M42.173,85.137,25.92,75.754V54.03l16.253,9.383Z" transform="translate(1.859 3.875)" fill="#1b334c"/>
        <path id="Trazado_878191" data-name="Trazado 878191" d="M11.923,59.192l-2.286-1.32.389-1.059,1.605.927c-.049-.549-.065-.912-.065-1.265v-.447L10.124,55.2l.357-.985,1.231.712c.616-2.51,2.545-3.089,5.009-1.665a12.123,12.123,0,0,1,2.853,2.28l-.194,1.71A11.617,11.617,0,0,0,16.721,55c-1.653-.955-2.642-.5-3.112,1.012l4.183,2.416L17.4,59.4l-3.956-2.284v.447a9.663,9.663,0,0,0,.08,1.274l3.94,2.274-.389,1.059-3.21-1.853A6.569,6.569,0,0,0,16.721,63.9a5.966,5.966,0,0,0,2.659.828l.194,1.936a6.935,6.935,0,0,1-2.853-1.015,11.028,11.028,0,0,1-4.8-6.454" transform="translate(0.691 3.765)" fill="#fff"/>
        <path id="Trazado_878192" data-name="Trazado 878192" d="M34.838,70.526l3.223,1.861-.422.857-2.82-1.628v1.452l3.242,1.872-.422.945-2.82-1.629V77.47l-1.841-1.063V73.193l-3.416-1.971.4-.956L32.978,72V70.552L29.562,68.58l.4-.868,2.992,1.728-4.97-11.322,1.784,1.03,4.125,9.14,4.124-4.377,1.784,1.03Z" transform="translate(2.007 4.168)" fill="#fff"/>
      </g>
    </g>
  </g>
</svg>
