<svg id="Grupo_1104147" data-name="Grupo 1104147" xmlns="http://www.w3.org/2000/svg" xmlns:xlink="http://www.w3.org/1999/xlink" width="114.814" height="115.135" viewBox="0 0 114.814 115.135">
  <defs>
    <clipPath id="clip-path">
      <rect id="Rectángulo_401882" data-name="Rectángulo 401882" width="114.814" height="115.135" fill="none"/>
    </clipPath>
  </defs>
  <g id="Grupo_1100453" data-name="Grupo 1100453" transform="translate(0 0)" clip-path="url(#clip-path)">
    <path id="Trazado_878226" data-name="Trazado 878226" d="M107.571,36.594V76.529c0,2.419-1.7,3.4-3.8,2.193l-51.089-29.5a8.4,8.4,0,0,1-3.8-6.58V2.711c0-2.42,1.7-3.4,3.8-2.193l51.089,29.5a8.4,8.4,0,0,1,3.8,6.58" transform="translate(7.243 0)" fill="#3a5267"/>
    <path id="Trazado_878227" data-name="Trazado 878227" d="M106.826,36.842V76.777c0,2.42-1.7,3.4-3.8,2.193l-51.089-29.5a8.4,8.4,0,0,1-3.8-6.58V2.959c0-2.419,1.7-3.4,3.8-2.193l51.089,29.5a8.4,8.4,0,0,1,3.8,6.58" transform="translate(7.133 0.037)" fill="#eceff2"/>
    <path id="Trazado_878228" data-name="Trazado 878228" d="M106.826,36.842v2.269L48.139,5.228V2.959c0-2.419,1.7-3.4,3.8-2.193l51.089,29.5a8.4,8.4,0,0,1,3.8,6.58" transform="translate(7.133 0.037)" fill="#314b62"/>
    <path id="Trazado_878229" data-name="Trazado 878229" d="M106.826,42.057v3.055a74.739,74.739,0,0,1-7.86-4.023c-2.012-1.162-2.709.22-3.767,2.756-1.1,2.629-2.458,5.9-6.843,3.37-3.59-2.071-5.361-5.03-6.922-7.639-1.467-2.444-2.625-4.377-5.261-5.9-3.563-2.056-5.24.127-7.178,2.663-1.923,2.508-4.1,5.346-8.541,2.783a25.1,25.1,0,0,1-6.194-5.379,20.183,20.183,0,0,0-5.071-4.453c-.362-.209-.713-.4-1.048-.563V25.7c.341.173.687.361,1.048.569a25.022,25.022,0,0,1,6.162,5.355,20.192,20.192,0,0,0,5.1,4.477c2.97,1.715,4.517-.3,6.308-2.632,2.055-2.681,4.381-5.718,9.412-2.814,3.679,2.124,5.476,5.122,7.058,7.766,1.441,2.405,2.579,4.3,5.125,5.773,2.467,1.425,3.28-.152,4.4-2.85,1.028-2.463,2.306-5.531,6.209-3.277a69.9,69.9,0,0,0,7.86,3.993" transform="translate(7.133 3.807)" fill="#fff"/>
    <path id="Trazado_878230" data-name="Trazado 878230" d="M106.826,41v3.055a74.513,74.513,0,0,1-7.86-4.023c-2.012-1.162-2.709.22-3.767,2.756-1.1,2.629-2.458,5.9-6.843,3.37-3.59-2.071-5.361-5.03-6.922-7.639-1.467-2.444-2.625-4.377-5.261-5.9-3.563-2.056-5.24.127-7.178,2.663-1.923,2.508-4.1,5.346-8.541,2.783a25.1,25.1,0,0,1-6.194-5.379,20.183,20.183,0,0,0-5.071-4.453c-.362-.209-.713-.4-1.048-.563V24.642c.341.173.687.361,1.048.569a25.022,25.022,0,0,1,6.162,5.355,20.192,20.192,0,0,0,5.1,4.477c2.97,1.715,4.517-.3,6.308-2.632,2.055-2.681,4.381-5.718,9.412-2.814,3.679,2.124,5.476,5.122,7.058,7.766,1.441,2.405,2.579,4.3,5.125,5.773,2.467,1.425,3.28-.152,4.4-2.85,1.028-2.463,2.306-5.531,6.209-3.277A69.9,69.9,0,0,0,106.826,41" transform="translate(7.133 3.651)" fill="#eaaf8b"/>
    <path id="Trazado_878231" data-name="Trazado 878231" d="M63.386,28.1,51.333,21.142V10.25l12.052,6.958Z" transform="translate(7.606 1.519)" fill="#0e2239"/>
    <path id="Trazado_878232" data-name="Trazado 878232" d="M99.182,63.81,72.327,48.3V44.372l26.854,15.5Z" transform="translate(10.717 6.575)" fill="#3a5267"/>
    <path id="Trazado_878233" data-name="Trazado 878233" d="M51.982,3.41c.409.708.409,1.475,0,1.711s-1.072-.146-1.482-.855-.409-1.475,0-1.711,1.074.147,1.482.855" transform="translate(7.437 0.368)" fill="#9da7b2"/>
    <path id="Trazado_878234" data-name="Trazado 878234" d="M54.606,4.925c.409.708.409,1.475,0,1.711s-1.072-.146-1.482-.855-.409-1.474,0-1.711,1.074.147,1.482.855" transform="translate(7.826 0.593)" fill="#9da7b2"/>
    <path id="Trazado_878235" data-name="Trazado 878235" d="M57.23,6.44c.41.708.41,1.475,0,1.712s-1.072-.147-1.482-.857-.409-1.474,0-1.711,1.074.147,1.482.855" transform="translate(8.215 0.817)" fill="#9da7b2"/>
    <path id="Trazado_878236" data-name="Trazado 878236" d="M59.854,7.955c.409.71.409,1.475,0,1.712s-1.072-.147-1.482-.857-.409-1.474,0-1.711,1.074.147,1.482.855" transform="translate(8.603 1.042)" fill="#9da7b2"/>
    <path id="Trazado_878237" data-name="Trazado 878237" d="M34.606,14.086v1.03l8.081,4.859V18.944Z" transform="translate(5.127 2.087)" fill="#f98786"/>
    <path id="Trazado_878238" data-name="Trazado 878238" d="M31.3,37.161l-5.534-3.216L37.162,14.2,42.7,17.418Z" transform="translate(3.817 2.104)" fill="#fba6a5"/>
    <path id="Trazado_878239" data-name="Trazado 878239" d="M12.383,61.664,6.849,58.448,16.831,37.3l5.534,3.215Z" transform="translate(1.015 5.526)" fill="#fba6a5"/>
    <path id="Trazado_878240" data-name="Trazado 878240" d="M21.077,41.387l-5.534-3.216L27.276,31.4l5.534,3.216Z" transform="translate(2.303 4.652)" fill="#febfbe"/>
    <path id="Trazado_878241" data-name="Trazado 878241" d="M5.534,63.475,0,60.259l7.865-4.541L13.4,58.934Z" transform="translate(0 8.256)" fill="#febfbe"/>
    <path id="Trazado_878242" data-name="Trazado 878242" d="M5.534,63.849,0,60.633v-.959L5.534,62.89Z" transform="translate(0 8.842)" fill="#fba6a5"/>
    <path id="Trazado_878243" data-name="Trazado 878243" d="M45.8,17l.591.34L34.747,37.509,23.087,44.24,13.1,65.388,4.819,70.17v-.959l7.864-4.541,9.983-21.152L34.4,36.746Z" transform="translate(0.714 2.519)" fill="#f98786"/>
    <path id="Trazado_878244" data-name="Trazado 878244" d="M42.316,10.24l-7.754,4.417,8.13,4.858Z" transform="translate(5.121 1.517)" fill="#fba6a5"/>
    <path id="Trazado_878245" data-name="Trazado 878245" d="M94.023,80.1,60.77,99.294,13.717,72.129l33.254-19.2Z" transform="translate(2.032 7.842)" fill="#eceff2"/>
    <path id="Trazado_878246" data-name="Trazado 878246" d="M60.744,96.956v7.839L13.692,77.629V69.79Z" transform="translate(2.029 10.341)" fill="#d8e0e5"/>
    <path id="Trazado_878247" data-name="Trazado 878247" d="M54.76,95.968l-.087,7.839L88.2,84.293v-7.84Z" transform="translate(8.101 11.328)" fill="#adbcc7"/>
    <path id="Trazado_878248" data-name="Trazado 878248" d="M36.563,75.962,34.3,77.267l-8.616-4.974,2.262-1.307Z" transform="translate(3.806 10.518)" fill="#314b62"/>
    <path id="Trazado_878249" data-name="Trazado 878249" d="M39.8,74.643l-2.262,1.305L25.249,68.857l2.262-1.307Z" transform="translate(3.741 10.009)" fill="#314b62"/>
    <path id="Trazado_878250" data-name="Trazado 878250" d="M42.239,72.869l-2.262,1.305-9.849-5.686,2.263-1.305Z" transform="translate(4.464 9.954)" fill="#314b62"/>
    <path id="Trazado_878251" data-name="Trazado 878251" d="M44.756,71.137l-2.262,1.307-7.98-4.608,2.262-1.305Z" transform="translate(5.114 9.858)" fill="#314b62"/>
    <path id="Trazado_878252" data-name="Trazado 878252" d="M47.894,69.763l-2.262,1.305-10.92-6.3,2.262-1.305Z" transform="translate(5.143 9.403)" fill="#314b62"/>
    <path id="Trazado_878253" data-name="Trazado 878253" d="M50.289,67.961l-2.262,1.307-8.1-4.679,2.262-1.305Z" transform="translate(5.915 9.377)" fill="#314b62"/>
    <path id="Trazado_878254" data-name="Trazado 878254" d="M53.8,66.8l-2.262,1.305L37.622,60.075l2.262-1.307Z" transform="translate(5.574 8.708)" fill="#314b62"/>
    <path id="Trazado_878255" data-name="Trazado 878255" d="M56.7,65.29,54.434,66.6,39.429,57.933l2.262-1.305Z" transform="translate(5.842 8.39)" fill="#314b62"/>
    <path id="Trazado_878256" data-name="Trazado 878256" d="M48.753,72.383,36.575,79.414l-1.366-.789,12.179-7.031Z" transform="translate(5.217 10.608)" fill="#3a5267"/>
    <path id="Trazado_878257" data-name="Trazado 878257" d="M50.983,73.671,38.806,80.7l-1.366-.789,12.177-7.031Z" transform="translate(5.547 10.799)" fill="#3a5267"/>
    <path id="Trazado_878258" data-name="Trazado 878258" d="M53.213,74.958,41.036,81.99,39.67,81.2,51.847,74.17Z" transform="translate(5.878 10.99)" fill="#3a5267"/>
    <path id="Trazado_878259" data-name="Trazado 878259" d="M55.444,76.246,43.266,83.278,41.9,82.489l12.179-7.031Z" transform="translate(6.208 11.18)" fill="#3a5267"/>
    <path id="Trazado_878260" data-name="Trazado 878260" d="M71.751,72.307l-13.8,7.967-1.366-.789,13.8-7.967Z" transform="translate(8.384 10.597)" fill="#3a5267"/>
    <path id="Trazado_878261" data-name="Trazado 878261" d="M73.981,73.595l-13.8,7.967-1.366-.789,13.8-7.967Z" transform="translate(8.715 10.787)" fill="#3a5267"/>
    <path id="Trazado_878262" data-name="Trazado 878262" d="M76.212,74.883l-13.8,7.967-1.366-.789,13.8-7.967Z" transform="translate(9.045 10.978)" fill="#3a5267"/>
    <path id="Trazado_878263" data-name="Trazado 878263" d="M78.606,76.265l-13.8,7.967-1.366-.789,13.8-7.967Z" transform="translate(9.4 11.183)" fill="#3a5267"/>
    <path id="Trazado_878264" data-name="Trazado 878264" d="M57.322,67.048v3.8L52.67,68.161a9.506,9.506,0,0,1,4.652-1.113" transform="translate(7.804 9.934)" fill="#eaaf8b"/>
    <path id="Trazado_878265" data-name="Trazado 878265" d="M64.15,70.7a3.267,3.267,0,0,1-1.925,2.687,10.291,10.291,0,0,1-9.308,0,2.837,2.837,0,0,1,0-5.373L57.571,70.7Z" transform="translate(7.555 10.078)" fill="#f64b48"/>
    <path id="Trazado_878266" data-name="Trazado 878266" d="M61.375,68.16A3.27,3.27,0,0,1,63.3,70.846H56.723v-3.8a9.512,9.512,0,0,1,4.652,1.113" transform="translate(8.405 9.934)" fill="#324255"/>
    <path id="Trazado_878267" data-name="Trazado 878267" d="M52.394,89.646l-2.846-1.687,1.342-2.926.4-1.77,1.559-1.668-.44-2.256.919-1.3,9.715,5.61s-10.7,5.641-10.652,6" transform="translate(7.341 11.563)" fill="#3a5267"/>
    <path id="Trazado_878268" data-name="Trazado 878268" d="M54.41,90.695,50.018,88.16l2.888-2.077.4-1.77,1.559-1.668-.44-2.256.919-1.3,9.715,5.61s-10.7,5.641-10.652,6" transform="translate(7.411 11.718)" fill="#f64b48"/>
    <path id="Trazado_878269" data-name="Trazado 878269" d="M54.262,90.609l-2.351-1.357,1.417-2.966h3.18L55.177,82.91l2.874-.431-.812-2.3,7.541,4.355Z" transform="translate(7.691 11.88)" fill="#eaaf8b"/>
    <path id="Trazado_878270" data-name="Trazado 878270" d="M35.711,45.786c-3.434,2-5.145,4.606-5.153,7.222v-6c.008-2.616,1.736-5.226,5.17-7.222,4.319-2.51,10.329-3.451,15.929-2.823l-.017,6c-5.6-.628-11.61.313-15.929,2.823" transform="translate(4.528 5.449)" fill="#d3c8c8"/>
    <path id="Trazado_878271" data-name="Trazado 878271" d="M58.1,45.761a23.857,23.857,0,0,0-9.177-2.823q.007-3,.016-6a23.856,23.856,0,0,1,9.178,2.823c3.5,2.021,5.239,4.673,5.231,7.323v6c.008-2.65-1.749-5.3-5.248-7.323" transform="translate(7.248 5.473)" fill="#d3c8c8"/>
    <path id="Trazado_878272" data-name="Trazado 878272" d="M62.15,45.776v6c-.007,2.614-1.726,5.225-5.159,7.22V53c3.433-1.994,5.152-4.605,5.159-7.22" transform="translate(8.444 6.783)" fill="#9da7b2"/>
    <path id="Trazado_878273" data-name="Trazado 878273" d="M30.558,51.687v-6c-.008,2.649,1.75,5.3,5.249,7.321,6.956,4.016,18.188,4.016,25.1,0v6c-6.912,4.016-18.163,4.016-25.117,0-3.5-2.021-5.24-4.673-5.232-7.322" transform="translate(4.528 6.77)" fill="#9da7b2"/>
    <path id="Trazado_878274" data-name="Trazado 878274" d="M69.86,45.8v6c-.009,3.109-2.061,6.215-6.144,8.587-8.219,4.776-21.587,4.776-29.858,0-4.163-2.4-6.233-5.557-6.224-8.708v-6c-.009,3.151,2.078,6.3,6.24,8.708,8.273,4.776,21.64,4.776,29.858,0,4.083-2.373,6.119-5.478,6.128-8.587" transform="translate(4.094 6.768)" fill="#53bced"/>
    <path id="Trazado_878275" data-name="Trazado 878275" d="M63.635,38.662c-8.273-4.776-21.64-4.776-29.858,0s-8.176,12.518.1,17.295,21.64,4.776,29.858,0,8.176-12.518-.1-17.295M66.447,48.2c-.335,2.328-2.039,4.6-5.107,6.383-6.911,4.017-18.144,4.019-25.1,0-3.118-1.8-4.845-4.1-5.182-6.453-.412-2.9,1.286-5.873,5.1-8.091,6.91-4.014,18.148-4.014,25.107,0,3.87,2.233,5.6,5.24,5.179,8.161" transform="translate(4.095 5.198)" fill="#53bced"/>
    <path id="Trazado_878276" data-name="Trazado 878276" d="M66.006,47.728c-.335,2.328-2.039,4.6-5.107,6.383-6.911,4.017-18.145,4.019-25.1,0-3.118-1.8-4.845-4.1-5.182-6.453.333-2.33,2.035-4.6,5.1-6.383,6.911-4.019,18.149-4.019,25.107,0,3.12,1.8,4.844,4.1,5.179,6.453" transform="translate(4.536 5.669)" fill="#f0eeee"/>
    <path id="Trazado_878277" data-name="Trazado 878277" d="M63.2,52.525l8.231,4.783a1.872,1.872,0,0,0-1.888.186L61.31,52.709a1.869,1.869,0,0,1,1.885-.184" transform="translate(9.084 7.756)" fill="#547087"/>
    <path id="Trazado_878278" data-name="Trazado 878278" d="M67.431,60.769a4.391,4.391,0,0,0-.191,1.253,1.853,1.853,0,0,0,.769,1.7l-8.227-4.788a1.864,1.864,0,0,1-.777-1.7,4.54,4.54,0,0,1,.191-1.229,5.244,5.244,0,0,1,.333-.888,5.613,5.613,0,0,1,2.122-2.464l8.229,4.786a6.069,6.069,0,0,0-2.449,3.322" transform="translate(8.743 7.803)" fill="#85909f"/>
    <path id="Trazado_878279" data-name="Trazado 878279" d="M67.748,59.564a5.554,5.554,0,0,0-.341.888L59.172,55.7a4.877,4.877,0,0,1,.333-.888Z" transform="translate(8.767 8.121)" fill="#fff"/>
    <path id="Trazado_878280" data-name="Trazado 878280" d="M68.818,56.877c1.464-.845,2.656-.168,2.66,1.516a5.826,5.826,0,0,1-2.643,4.578c-1.464.845-2.653.164-2.658-1.518a5.819,5.819,0,0,1,2.641-4.575" transform="translate(9.805 8.373)" fill="#fba6a5"/>
    <path id="Trazado_878281" data-name="Trazado 878281" d="M70.717,56.1l16.461,9.567a2.26,2.26,0,0,0-2.28.223L68.437,56.323a2.26,2.26,0,0,1,2.28-.223" transform="translate(10.14 8.28)" fill="#53bced"/>
    <path id="Trazado_878282" data-name="Trazado 878282" d="M85.311,65.832a6.488,6.488,0,0,0-2.182,2.257,7.034,7.034,0,0,0-.7,1.506,5.426,5.426,0,0,0-.316,1.767,2.261,2.261,0,0,0,.933,2.053L66.589,63.849a2.262,2.262,0,0,1-.936-2.052,5.649,5.649,0,0,1,.3-1.713,7.221,7.221,0,0,1,.689-1.521,6.415,6.415,0,0,1,2.2-2.3Z" transform="translate(9.728 8.337)" fill="#53bced"/>
    <path id="Trazado_878283" data-name="Trazado 878283" d="M83.186,64.654c1.768-1.021,3.209-.2,3.215,1.832a7.036,7.036,0,0,1-3.193,5.53c-1.77,1.022-3.21.2-3.216-1.831a7.037,7.037,0,0,1,3.194-5.531" transform="translate(11.852 9.515)" fill="#31718e"/>
    <path id="Trazado_878284" data-name="Trazado 878284" d="M46.772,40.017V46.7l-8.184-4.725a16.733,16.733,0,0,1,8.184-1.956" transform="translate(5.717 5.929)" fill="#eaaf8b"/>
    <path id="Trazado_878285" data-name="Trazado 878285" d="M58.783,46.446c0,1.711-1.127,3.422-3.386,4.726a16.731,16.731,0,0,1-8.188,1.958,16.729,16.729,0,0,1-8.185-1.958c-2.261-1.3-3.388-3.014-3.388-4.725s1.133-3.423,3.391-4.726l8.183,4.725Z" transform="translate(5.28 6.182)" fill="#f98786"/>
    <path id="Trazado_878286" data-name="Trazado 878286" d="M53.9,41.973c2.257,1.3,3.387,3.015,3.387,4.725H45.716V40.017A16.738,16.738,0,0,1,53.9,41.973" transform="translate(6.774 5.929)" fill="#475f73"/>
    <path id="Trazado_878287" data-name="Trazado 878287" d="M33.658,38.472a14.058,14.058,0,0,0-4.711,4.659,7.257,7.257,0,0,0-.633,6.111,9.535,9.535,0,0,0,1.6,2.7,11.969,11.969,0,0,0,2.389,2.144,21.121,21.121,0,0,0,5.935,2.743,39.833,39.833,0,0,0,19.854.468,27.619,27.619,0,0,0,6.348-2.292l.048.077A29.851,29.851,0,0,1,51.51,58.967,35.979,35.979,0,0,1,37.975,57.7a21.126,21.126,0,0,1-6.154-2.937,11.031,11.031,0,0,1-4.182-5.3,7.8,7.8,0,0,1,.9-6.588,13.55,13.55,0,0,1,5.077-4.484Z" transform="translate(4.041 5.688)" fill="#fff"/>
  </g>
</svg>
